<mxfile host="65bd71144e">
    <diagram id="sinzWXUCxuXd4Uh4ZjKI" name="Page-1">
        <mxGraphModel dx="1810" dy="959" grid="1" gridSize="10" guides="1" tooltips="1" connect="1" arrows="1" fold="1" page="1" pageScale="1" pageWidth="1169" pageHeight="827" background="#F4F1DE" math="0" shadow="0">
            <root>
                <mxCell id="0"/>
                <mxCell id="1" parent="0"/>
                <mxCell id="6" value="" style="edgeStyle=orthogonalEdgeStyle;rounded=0;orthogonalLoop=1;jettySize=auto;html=1;labelBackgroundColor=#F4F1DE;strokeColor=#E07A5F;fontColor=#393C56;" edge="1" parent="1" source="2" target="5">
                    <mxGeometry relative="1" as="geometry"/>
                </mxCell>
                <mxCell id="8" value="" style="edgeStyle=orthogonalEdgeStyle;rounded=0;orthogonalLoop=1;jettySize=auto;html=1;labelBackgroundColor=#F4F1DE;strokeColor=#E07A5F;fontColor=#393C56;" edge="1" parent="1" source="2" target="7">
                    <mxGeometry relative="1" as="geometry"/>
                </mxCell>
                <mxCell id="2" value="SHOP" style="whiteSpace=wrap;html=1;aspect=fixed;fillColor=#F2CC8F;strokeColor=#E07A5F;fontColor=#393C56;fontStyle=1" vertex="1" parent="1">
                    <mxGeometry x="537" y="60" width="140" height="140" as="geometry"/>
                </mxCell>
                <mxCell id="16" value="" style="edgeStyle=orthogonalEdgeStyle;rounded=0;orthogonalLoop=1;jettySize=auto;html=1;fontColor=#393C56;exitX=0;exitY=0.5;exitDx=0;exitDy=0;labelBackgroundColor=#F4F1DE;strokeColor=#E07A5F;" edge="1" parent="1" source="5" target="15">
                    <mxGeometry relative="1" as="geometry"/>
                </mxCell>
                <mxCell id="21" value="" style="edgeStyle=orthogonalEdgeStyle;rounded=0;orthogonalLoop=1;jettySize=auto;html=1;fontColor=#393C56;exitX=1;exitY=0.5;exitDx=0;exitDy=0;labelBackgroundColor=#F4F1DE;strokeColor=#E07A5F;" edge="1" parent="1" source="5" target="20">
                    <mxGeometry relative="1" as="geometry"/>
                </mxCell>
                <mxCell id="5" value="SERVICE" style="whiteSpace=wrap;html=1;aspect=fixed;fillColor=#F2CC8F;strokeColor=#E07A5F;fontColor=#393C56;fontStyle=1" vertex="1" parent="1">
                    <mxGeometry x="232" y="260" width="140" height="140" as="geometry"/>
                </mxCell>
                <mxCell id="18" value="" style="edgeStyle=orthogonalEdgeStyle;rounded=0;orthogonalLoop=1;jettySize=auto;html=1;fontColor=#393C56;labelBackgroundColor=#F4F1DE;strokeColor=#E07A5F;" edge="1" parent="1" source="7" target="17">
                    <mxGeometry relative="1" as="geometry"/>
                </mxCell>
                <mxCell id="27" style="edgeStyle=orthogonalEdgeStyle;curved=0;rounded=1;sketch=0;orthogonalLoop=1;jettySize=auto;html=1;entryX=0.5;entryY=0;entryDx=0;entryDy=0;fontColor=#393C56;strokeColor=#E07A5F;fillColor=#F2CC8F;" edge="1" parent="1" source="7" target="26">
                    <mxGeometry relative="1" as="geometry"/>
                </mxCell>
                <mxCell id="7" value="CUSTOMER" style="whiteSpace=wrap;html=1;aspect=fixed;fillColor=#F2CC8F;strokeColor=#E07A5F;fontColor=#393C56;fontStyle=1" vertex="1" parent="1">
                    <mxGeometry x="842" y="260" width="140" height="140" as="geometry"/>
                </mxCell>
                <mxCell id="9" value="shop name&lt;br&gt;shop ID" style="text;html=1;strokeColor=none;fillColor=none;align=left;verticalAlign=top;whiteSpace=wrap;rounded=0;labelBackgroundColor=none;fontColor=#393C56;" vertex="1" parent="1">
                    <mxGeometry x="692" y="60" width="70" height="50" as="geometry"/>
                </mxCell>
                <mxCell id="10" value="customer name&lt;br&gt;customer ID&lt;br&gt;customer address&lt;br&gt;customer phone number" style="text;html=1;strokeColor=none;fillColor=none;align=left;verticalAlign=top;whiteSpace=wrap;rounded=0;fontColor=#393C56;" vertex="1" parent="1">
                    <mxGeometry x="990" y="260" width="155" height="200" as="geometry"/>
                </mxCell>
                <mxCell id="12" value="service cost&lt;br&gt;service date" style="text;html=1;strokeColor=none;fillColor=none;align=left;verticalAlign=top;whiteSpace=wrap;rounded=0;fontColor=#393C56;" vertex="1" parent="1">
                    <mxGeometry x="382" y="270" width="155" height="200" as="geometry"/>
                </mxCell>
                <mxCell id="15" value="HW" style="whiteSpace=wrap;html=1;aspect=fixed;fillColor=#F2CC8F;strokeColor=#E07A5F;fontColor=#393C56;fontStyle=1" vertex="1" parent="1">
                    <mxGeometry x="40" y="470" width="140" height="140" as="geometry"/>
                </mxCell>
                <mxCell id="17" value="VIP CUSTOMER" style="whiteSpace=wrap;html=1;aspect=fixed;fillColor=#F2CC8F;strokeColor=#E07A5F;fontColor=#393C56;fontStyle=1" vertex="1" parent="1">
                    <mxGeometry x="692" y="470" width="140" height="140" as="geometry"/>
                </mxCell>
                <mxCell id="19" value="bonus points" style="text;html=1;strokeColor=none;fillColor=none;align=left;verticalAlign=top;whiteSpace=wrap;rounded=0;fontColor=#393C56;" vertex="1" parent="1">
                    <mxGeometry x="842" y="510" width="155" height="200" as="geometry"/>
                </mxCell>
                <mxCell id="20" value="SW" style="whiteSpace=wrap;html=1;aspect=fixed;fillColor=#F2CC8F;strokeColor=#E07A5F;fontColor=#393C56;fontStyle=1" vertex="1" parent="1">
                    <mxGeometry x="332" y="470" width="140" height="140" as="geometry"/>
                </mxCell>
                <mxCell id="22" value="part price&lt;br&gt;assembly cost" style="text;html=1;strokeColor=none;fillColor=none;align=left;verticalAlign=top;whiteSpace=wrap;rounded=0;fontColor=#393C56;" vertex="1" parent="1">
                    <mxGeometry x="190" y="490" width="155" height="200" as="geometry"/>
                </mxCell>
                <mxCell id="23" value="SW version" style="text;html=1;strokeColor=none;fillColor=none;align=left;verticalAlign=top;whiteSpace=wrap;rounded=0;fontColor=#393C56;" vertex="1" parent="1">
                    <mxGeometry x="477" y="490" width="155" height="200" as="geometry"/>
                </mxCell>
                <mxCell id="24" value="Actor" style="shape=umlActor;verticalLabelPosition=bottom;verticalAlign=top;html=1;outlineConnect=0;labelBackgroundColor=none;fontColor=#393C56;fillColor=#F2CC8F;strokeColor=#E07A5F;" vertex="1" parent="1">
                    <mxGeometry x="950" y="160" width="30" height="60" as="geometry"/>
                </mxCell>
                <mxCell id="26" value="SERVICE CONTRACT" style="whiteSpace=wrap;html=1;aspect=fixed;fillColor=#F2CC8F;strokeColor=#E07A5F;fontColor=#393C56;fontStyle=1" vertex="1" parent="1">
                    <mxGeometry x="1009.5" y="470" width="140" height="140" as="geometry"/>
                </mxCell>
            </root>
        </mxGraphModel>
    </diagram>
</mxfile>